<svg width="322" height="317" viewBox="0 0 322 317" fill="none" xmlns="http://www.w3.org/2000/svg">
<path d="M272.869 207.567C246.892 266.992 175.588 293.277 113.561 266.163C51.5342 239.048 22.4035 168.859 48.3806 109.433C74.3578 50.0084 145.662 23.7229 207.689 50.8373C269.715 77.9518 298.846 148.141 272.869 207.567Z" stroke="#BEBCDE" stroke-opacity="0.34" stroke-width="2"/>
<circle cx="160.625" cy="158.5" r="111.5" fill="#CECCEB"/>
<g clip-path="url(#clip0_259_492)">
<rect x="149.465" y="35.381" width="102.807" height="198.524" rx="16.5437" transform="rotate(13.7958 149.465 35.381)" fill="#4D4A81"/>
<path d="M149.808 48.85C150.898 44.4134 155.377 41.6999 159.814 42.7893L236.703 61.6691C241.14 62.7585 243.854 67.2382 242.764 71.6749L201.905 238.077C200.816 242.514 196.336 245.227 191.899 244.138L115.01 225.258C110.573 224.169 107.86 219.689 108.949 215.252L149.808 48.85Z" fill="#F5F3F5"/>
<path d="M179.323 47.5797L218.342 57.1605V57.1605C217.408 60.9634 213.568 63.2892 209.765 62.3554L184.518 56.1561C180.715 55.2223 178.389 51.3826 179.323 47.5797V47.5797Z" fill="#4D4A81"/>
<rect x="139.741" y="212.529" width="33.6628" height="13.8104" rx="6.90519" transform="rotate(13.7958 139.741 212.529)" fill="white"/>
<rect x="154.981" y="52.7336" width="83.7255" height="153.641" rx="4.31575" transform="rotate(13.7958 154.981 52.7336)" fill="white"/>
<circle cx="134.532" cy="195.983" r="5.17889" transform="rotate(22.8855 134.532 195.983)" fill="#F5F3F5"/>
<circle cx="192.634" cy="209.267" r="5.17889" transform="rotate(22.8855 192.634 209.267)" fill="#F5F3F5"/>
</g>
<g clip-path="url(#clip1_259_492)">
<rect width="116.212" height="224.41" rx="18.7008" transform="matrix(-0.971152 0.238462 0.238462 0.971152 139.723 12.7739)" fill="#090814"/>
<path d="M139.335 27.9991C138.104 22.984 133.04 19.9167 128.025 21.1482L41.1099 42.4897C36.0948 43.7212 33.0275 48.785 34.2589 53.8001L80.4459 241.9C81.6773 246.915 86.7412 249.982 91.7563 248.751L178.671 227.409C183.686 226.178 186.754 221.114 185.522 216.099L139.335 27.9991Z" fill="#F5F3F5"/>
<path d="M105.972 26.5632L61.8659 37.3933V37.3933C62.9214 41.692 67.2619 44.321 71.5605 43.2655L100.1 36.2579C104.398 35.2023 107.028 30.8619 105.972 26.5632V26.5632Z" fill="#090814"/>
<rect width="38.0521" height="15.6111" rx="7.80556" transform="matrix(-0.971152 0.238462 0.238462 0.971152 150.715 213.02)" fill="white"/>
<rect width="94.6425" height="173.674" rx="4.87848" transform="matrix(-0.971152 0.238462 0.238462 0.971152 133.488 32.3891)" fill="white"/>
<circle cx="5.85417" cy="5.85417" r="5.85417" transform="matrix(-0.921284 0.38889 0.38889 0.921284 159.72 186.647)" fill="#F5F3F5"/>
<circle cx="5.85417" cy="5.85417" r="5.85417" transform="matrix(-0.921284 0.38889 0.38889 0.921284 94.0425 201.662)" fill="#F5F3F5"/>
</g>
<g clip-path="url(#clip2_259_492)">
<path fill-rule="evenodd" clip-rule="evenodd" d="M233.766 28.3183C233.702 28.1027 233.636 27.8864 233.569 27.6707C232.882 25.4737 232.208 23.2814 231.677 21.0388C231.549 20.4956 231.32 19.453 230.9 18.7502C230.6 18.2476 230.201 17.8869 229.753 17.7096C229.467 17.5965 229.003 17.516 228.525 17.9199C228.445 17.9878 228.324 18.1141 228.205 18.2942C228.012 18.5856 227.734 19.1463 227.7 19.2263C227.2 20.3898 226.727 21.5048 226.324 22.7062C225.952 23.8116 225.519 24.893 225.162 26.0046C224.629 27.6676 224.211 29.3211 223.975 31.0545C223.887 31.6981 224.338 32.2916 224.982 32.3795C225.625 32.4671 226.219 32.0163 226.306 31.3728C226.524 29.7764 226.912 28.2552 227.404 26.7237C227.757 25.6223 228.187 24.5505 228.555 23.4552C228.794 22.7426 229.06 22.0622 229.342 21.383L229.387 21.5805C229.93 23.8773 230.619 26.1226 231.322 28.3724C231.585 29.2146 231.82 30.0618 232.097 30.9001C232.106 30.9923 232.148 31.4162 232.195 31.5787C232.271 31.8493 232.404 32.0503 232.54 32.1885C232.886 32.5402 233.331 32.7258 233.954 32.4642C234.42 32.2682 234.875 31.8168 235.217 31.1671C235.688 30.2745 235.995 28.9245 236.22 28.3483C237.642 24.7025 238.778 20.9166 240.473 17.3828C240.754 16.7973 240.506 16.094 239.921 15.813C239.335 15.5325 238.631 15.7795 238.351 16.3653C236.63 19.9521 235.47 23.792 234.027 27.4931C233.95 27.6902 233.865 27.9838 233.766 28.3183Z" fill="#F37021"/>
<path fill-rule="evenodd" clip-rule="evenodd" d="M250.533 19.197C249.194 18.8626 247.874 18.4875 246.492 18.773C245.047 19.0722 243.875 20.0179 242.947 21.2804C241.764 22.8912 240.983 25.0278 240.399 26.5351C240.096 27.3156 239.58 28.3513 239.297 29.3652C239.054 30.2372 238.984 31.0995 239.191 31.8444C239.517 33.0146 240.616 33.7207 242.049 33.8921C243.704 34.09 245.748 33.5685 246.521 33.0335C247.055 32.664 247.189 31.9301 246.818 31.3962C246.449 30.8621 245.716 30.7287 245.181 31.0982C244.691 31.4375 243.378 31.6807 242.328 31.5555C242.094 31.5271 241.872 31.4803 241.685 31.3959C241.588 31.3523 241.487 31.3143 241.459 31.2149C241.323 30.7257 241.499 30.1486 241.697 29.5769C241.971 28.7796 242.355 28.0002 242.594 27.3858C243.116 26.0378 243.786 24.1143 244.844 22.6737C245.412 21.9013 246.085 21.2612 246.97 21.0783C247.996 20.866 248.966 21.2319 249.963 21.4806C250.593 21.6383 251.232 21.2544 251.389 20.6241C251.547 19.9942 251.163 19.3547 250.533 19.197Z" fill="#F37021"/>
<path fill-rule="evenodd" clip-rule="evenodd" d="M247.461 24.5845C246.284 24.5787 245.037 24.5524 243.874 24.3661C243.233 24.2632 242.629 24.7002 242.525 25.3413C242.423 25.9827 242.86 26.5869 243.501 26.6897C244.781 26.8953 246.153 26.932 247.449 26.9386C248.098 26.9417 248.629 26.417 248.632 25.7677C248.635 25.1178 248.111 24.5883 247.461 24.5845Z" fill="#F37021"/>
<path fill-rule="evenodd" clip-rule="evenodd" d="M259.608 31.991C259.357 30.6663 259.055 29.3325 258.666 28.0512C258.634 27.9469 258.171 26.7823 257.812 26.2441C257.569 25.8812 257.285 25.6834 257.1 25.6033C256.56 25.3702 256.094 25.4756 255.704 25.88C255.33 26.268 255.024 26.7182 254.757 27.2027C254.783 25.3536 254.895 23.4996 255.324 21.7186C255.36 21.5715 255.364 21.4961 255.366 21.4827C255.397 21.0887 255.253 20.8698 255.204 20.7878C254.965 20.3842 254.626 20.2433 254.289 20.2158C254.249 20.2121 253.344 20.1343 253.064 21.054C253.041 21.1282 252.899 21.6671 252.831 21.8711C252.773 22.0486 252.759 22.2298 252.784 22.4033C252.37 24.8343 252.394 27.3599 252.4 29.8159C252.401 30.3466 252.346 30.8624 252.214 31.3762C252.176 31.5263 252.026 31.8313 251.975 31.9937C251.89 32.2686 251.9 32.4897 251.918 32.6097C252.011 33.2344 252.399 33.5067 252.842 33.6037C253.031 33.6455 253.418 33.7155 253.876 33.3523C254.908 32.5366 255.503 31.3364 256.025 30.0839C256.179 29.7135 256.324 29.338 256.486 28.9768C256.9 30.3931 257.205 31.8709 257.458 33.3197C257.486 33.4788 257.83 34.9774 257.986 35.2584C258.376 35.9624 258.995 35.9358 259.286 35.8771C259.73 35.7872 260.211 35.4778 260.617 34.9699C261.142 34.3125 261.594 33.259 261.806 32.8517C263.231 30.11 264.692 27.2279 265.54 24.2514C265.718 23.6268 265.356 22.9754 264.731 22.7972C264.106 22.6189 263.455 22.9821 263.277 23.6062C262.471 26.4327 261.07 29.1632 259.717 31.766C259.686 31.8261 259.65 31.9026 259.608 31.991Z" fill="#F37021"/>
<path fill-rule="evenodd" clip-rule="evenodd" d="M268.757 25.1306C268.135 27.1428 267.523 29.1388 266.744 31.1307C266.507 31.7359 266.806 32.4191 267.411 32.6558C268.016 32.8923 268.699 32.5936 268.936 31.9884C270.035 29.1792 270.81 26.3639 271.735 23.5051C272.093 22.4004 271.067 22.017 271.003 21.9952C270.862 21.9472 270.08 21.7108 269.606 22.5169C269.577 22.566 269.416 22.938 269.346 23.0782C269.185 23.3988 269.01 23.7021 268.821 24.0076C268.603 24.3597 268.592 24.782 268.757 25.1306Z" fill="#F37021"/>
<path fill-rule="evenodd" clip-rule="evenodd" d="M265.555 37.2522C265.835 36.9913 265.982 36.5983 265.913 36.1925C265.803 35.5521 265.194 35.1219 264.554 35.2319C263.962 35.3334 263.666 35.6904 263.451 36.2094C263.204 36.8099 263.491 37.4987 264.092 37.7458C264.641 37.9724 265.264 37.7514 265.555 37.2522Z" fill="#F37021"/>
<path fill-rule="evenodd" clip-rule="evenodd" d="M235.142 46.4124C235.16 46.1319 235.172 45.9096 235.173 45.8609C235.202 43.5424 235.137 41.2028 234.935 38.8927C234.878 38.2455 234.308 37.7663 233.66 37.8228C233.013 37.8793 232.534 38.4503 232.59 39.0976C232.785 41.3294 232.847 43.5907 232.819 45.8312C232.817 46.0021 232.642 47.4337 232.708 48.108C232.769 48.7185 233.064 49.0874 233.265 49.2406C233.585 49.4838 234.198 49.6589 234.964 49.3128C235.965 48.8611 237.845 47.2175 238.156 46.9442C238.728 46.4409 239.282 45.8876 239.812 45.3448C240.818 44.3147 241.693 43.1844 242.552 42.0334C242.941 41.5128 242.834 40.7751 242.313 40.3861C241.793 39.9978 241.055 40.105 240.666 40.6254C239.869 41.693 239.062 42.7449 238.129 43.7001C237.639 44.2009 237.129 44.713 236.601 45.1775C236.443 45.3165 235.803 45.8993 235.142 46.4124Z" fill="#F37021"/>
</g>
<path d="M148.625 270L150.624 275.501L156.125 277.5L150.624 279.499L148.625 285L146.625 279.499L141.125 277.5L146.625 275.501L148.625 270Z" fill="#F37021"/>
<defs>
<clipPath id="clip0_259_492">
<rect x="149.465" y="35.381" width="102.807" height="198.524" rx="16.5437" transform="rotate(13.7958 149.465 35.381)" fill="white"/>
</clipPath>
<clipPath id="clip1_259_492">
<rect width="116.212" height="224.41" rx="18.7008" transform="matrix(-0.971152 0.238462 0.238462 0.971152 139.723 12.7739)" fill="white"/>
</clipPath>
<clipPath id="clip2_259_492">
<rect width="42.3654" height="42.3654" fill="white" transform="translate(236.571 3) rotate(28.857)"/>
</clipPath>
</defs>
</svg>
