<svg width="320" height="325" viewBox="0 0 320 325" fill="none" xmlns="http://www.w3.org/2000/svg">
<path d="M211.424 51.496C270.193 78.9261 294.717 150.855 266.086 212.196C237.455 273.538 166.571 300.934 107.802 273.504C49.0337 246.074 24.509 174.145 53.1399 112.804C81.7709 51.4624 152.655 24.0659 211.424 51.496Z" stroke="#BEBCDE" stroke-opacity="0.34" stroke-width="2"/>
<circle cx="159.613" cy="162.5" r="111.5" fill="#CECCEB"/>
<g clip-path="url(#clip0_259_496)">
<rect x="131.254" y="11.1163" width="119.107" height="230" rx="19.1667" transform="rotate(13.7958 131.254 11.1163)" fill="#090814"/>
<path d="M131.652 26.7207C132.914 21.5807 138.104 18.437 143.244 19.6991L232.324 41.5723C237.464 42.8344 240.608 48.0244 239.346 53.1644L192.008 245.95C190.746 251.09 185.556 254.233 180.416 252.971L91.3359 231.098C86.1959 229.836 83.0522 224.646 84.3143 219.506L131.652 26.7207Z" fill="#F5F3F5"/>
<path d="M165.846 25.2491L211.051 36.3489V36.3489C209.969 40.7546 205.521 43.4492 201.115 42.3674L171.865 35.1852C167.459 34.1034 164.765 29.6548 165.846 25.2491V25.2491Z" fill="#090814"/>
<rect x="119.989" y="216.351" width="39" height="16" rx="8" transform="rotate(13.7958 119.989 216.351)" fill="white"/>
<rect x="137.645" y="31.2201" width="97" height="178" rx="5" transform="rotate(13.7958 137.645 31.2201)" fill="white"/>
<circle cx="113.953" cy="197.182" r="6" transform="rotate(22.8855 113.953 197.182)" fill="#F5F3F5"/>
<circle cx="181.267" cy="212.571" r="6" transform="rotate(22.8855 181.267 212.571)" fill="#F5F3F5"/>
</g>
<rect x="275.513" y="122" width="9.35365" height="9.35365" transform="rotate(43.176 275.513 122)" fill="#F37021"/>
<path fill-rule="evenodd" clip-rule="evenodd" d="M72.9404 244.205C71.9234 248.34 71.99 252.323 71.8681 256.517C71.8444 257.336 72.4879 258.017 73.3046 258.042C74.1217 258.066 74.8037 257.42 74.8278 256.601C74.9433 252.624 74.85 248.839 75.8152 244.911C76.0106 244.117 75.5246 243.312 74.7311 243.12C73.9381 242.922 73.1353 243.411 72.9404 244.205Z" fill="#F37021"/>
<path fill-rule="evenodd" clip-rule="evenodd" d="M64.3001 236.192C57.4007 242.498 50.9001 250.61 46.3564 258.802C45.9602 259.517 46.2183 260.42 46.9328 260.815C47.6473 261.21 48.5493 260.953 48.9455 260.237C53.3392 252.318 59.6262 244.472 66.2976 238.378C66.9006 237.825 66.9425 236.888 66.3913 236.286C65.8402 235.684 64.9031 235.639 64.3001 236.192Z" fill="#F37021"/>
<path fill-rule="evenodd" clip-rule="evenodd" d="M62.5524 229.303C56.2421 228.262 49.738 230.038 44.0002 232.55C43.2517 232.881 42.9102 233.754 43.2373 234.499C43.565 235.249 44.4389 235.59 45.1875 235.264C50.4131 232.974 56.3231 231.277 62.0703 232.224C62.8766 232.358 63.6389 231.81 63.7717 231.006C63.9049 230.201 63.3581 229.436 62.5524 229.303Z" fill="#F37021"/>
<rect x="146.723" y="141" width="109.948" height="74.775" rx="6" transform="rotate(2 146.723 141)" fill="white"/>
<rect x="147.205" y="141.517" width="108.948" height="73.775" rx="5.5" transform="rotate(2 147.205 141.517)" stroke="#D1D1D6" stroke-opacity="0.24"/>
<rect x="210.128" y="197" width="38" height="13" rx="3" transform="rotate(2 210.128 197)" fill="#2D2966"/>
<rect x="153.559" y="197.023" width="42.2993" height="12.7779" rx="3" transform="rotate(2 153.559 197.023)" fill="#F5F3F5"/>
<path d="M203.113 176H192.113C191.134 176.001 190.188 175.643 189.456 174.993C188.723 174.343 188.254 173.448 188.137 172.475C188.021 171.503 188.265 170.522 188.824 169.718C189.383 168.913 190.217 168.342 191.169 168.112C191.363 166.591 192.052 165.177 193.128 164.085C194.204 162.994 195.609 162.286 197.127 162.07C198.645 161.855 200.191 162.144 201.529 162.893C202.867 163.641 203.921 164.809 204.531 166.215C205.683 166.556 206.673 167.3 207.321 168.311C207.969 169.322 208.23 170.533 208.058 171.721C207.886 172.91 207.291 173.997 206.383 174.782C205.475 175.568 204.314 176 203.113 176Z" fill="#CECCEB"/>
<path d="M198.113 182C197.982 182 197.852 181.974 197.73 181.924C197.609 181.874 197.499 181.8 197.406 181.707L194.906 179.207C194.724 179.018 194.623 178.766 194.625 178.504C194.628 178.241 194.733 177.991 194.918 177.805C195.104 177.62 195.355 177.515 195.617 177.512C195.879 177.51 196.132 177.611 196.32 177.793L198.113 179.586L199.906 177.793C200.095 177.611 200.347 177.51 200.61 177.512C200.872 177.515 201.123 177.62 201.308 177.805C201.493 177.991 201.599 178.241 201.601 178.504C201.603 178.766 201.502 179.018 201.32 179.207L198.82 181.707C198.727 181.8 198.617 181.874 198.496 181.924C198.375 181.974 198.244 182 198.113 182Z" fill="#F37021"/>
<path d="M198.113 182C197.848 182 197.594 181.895 197.406 181.707C197.219 181.52 197.113 181.265 197.113 181V171C197.113 170.735 197.219 170.48 197.406 170.293C197.594 170.105 197.848 170 198.113 170C198.378 170 198.633 170.105 198.82 170.293C199.008 170.48 199.113 170.735 199.113 171V181C199.113 181.265 199.008 181.52 198.82 181.707C198.633 181.895 198.378 182 198.113 182Z" fill="#F37021"/>
<defs>
<clipPath id="clip0_259_496">
<rect x="131.254" y="11.1163" width="119.107" height="230" rx="19.1667" transform="rotate(13.7958 131.254 11.1163)" fill="white"/>
</clipPath>
</defs>
</svg>
