<svg width="320" height="326" viewBox="0 0 320 326" fill="none" xmlns="http://www.w3.org/2000/svg">
<path fill-rule="evenodd" clip-rule="evenodd" d="M213.312 28.9291C216.014 28.1709 218.842 27.7884 221.586 27.438C222.177 27.3646 222.726 27.7745 222.768 28.352C222.853 28.9299 222.43 29.4584 221.882 29.5319C219.222 29.8692 216.478 30.2301 213.903 30.96C213.354 31.1183 212.763 30.7924 212.594 30.2318C212.425 29.6716 212.763 29.0878 213.312 28.9291Z" fill="#F37021"/>
<path fill-rule="evenodd" clip-rule="evenodd" d="M205.123 18.1798C209.471 13.7426 214.368 9.87654 218.631 5.32027C219.011 4.89474 219.687 4.87194 220.109 5.26919C220.531 5.66685 220.573 6.33554 220.151 6.76107C215.887 11.3304 210.99 15.2092 206.642 19.6595C206.22 20.0749 205.545 20.0808 205.123 19.6721C204.743 19.2639 204.7 18.5952 205.123 18.1798Z" fill="#F37021"/>
<path fill-rule="evenodd" clip-rule="evenodd" d="M196.975 1.11269C196.848 3.65235 196.721 6.19201 196.595 8.73209C196.595 9.31381 196.088 9.76298 195.497 9.7347C194.906 9.70599 194.484 9.21081 194.484 8.62866C194.611 6.08478 194.737 3.54132 194.864 0.997862C194.906 0.416138 195.413 -0.0300754 196.004 0.00158595C196.552 0.0332473 197.017 0.531387 196.975 1.11269Z" fill="#F37021"/>
<path d="M272.746 120.635C298.087 180.335 268.208 250.209 205.895 276.659C143.582 303.11 72.563 276.064 47.2221 216.365C21.8813 156.665 51.7602 86.7909 114.073 60.3407C176.386 33.8904 247.405 60.9362 272.746 120.635Z" stroke="#BEBCDE" stroke-opacity="0.34" stroke-width="2"/>
<circle cx="159.984" cy="168.5" r="111.5" fill="#CECCEB"/>
<g clip-path="url(#clip0_259_495)">
<rect x="85.0641" y="38.8524" width="119.107" height="230" rx="19.1667" transform="rotate(-9.08969 85.0641 38.8524)" fill="#090814"/>
<path d="M91.4988 53.074C90.6626 47.8477 94.2215 42.9332 99.4478 42.097L190.022 27.6061C195.248 26.7699 200.163 30.3288 200.999 35.5551L232.36 231.574C233.196 236.8 229.637 241.715 224.411 242.551L133.837 257.042C128.61 257.878 123.696 254.319 122.86 249.093L91.4988 53.074Z" fill="#F5F3F5"/>
<path d="M122.429 38.4202L168.392 31.0666V31.0666C169.109 35.5462 166.059 39.7587 161.579 40.4754L131.838 45.2336C127.358 45.9503 123.146 42.8998 122.429 38.4202V38.4202Z" fill="#090814"/>
<rect x="154.499" y="232.312" width="39" height="16" rx="8" transform="rotate(-9.08969 154.499 232.312)" fill="white"/>
<rect x="98.7696" y="54.8886" width="97" height="178" rx="5" transform="rotate(-9.08969 98.7696 54.8886)" fill="white"/>
</g>
<g clip-path="url(#clip1_259_495)">
<rect x="47.484" y="71.1698" width="109.948" height="74.775" rx="6" transform="rotate(-18.1063 47.484 71.1698)" fill="white"/>
<rect x="71.484" y="118.678" width="38" height="13" rx="3" transform="rotate(-17.8969 71.484 118.678)" fill="#2D2966"/>
<rect x="69.484" y="107.21" width="36" height="6" rx="3" transform="rotate(-16.4756 69.484 107.21)" fill="#F5F3F5"/>
<path d="M118.628 74.024C118.927 75.8229 121.638 76.3487 123.099 76.453C125.346 76.6135 126.781 76.1747 126.039 73.7618C124.515 68.8086 119.539 70.2475 116.143 72.2851" stroke="#CECCEB" stroke-width="3" stroke-linecap="round"/>
<path d="M146.699 65.0808C145.927 65.0808 144.714 64.8515 144.325 65.7157C142.986 68.693 144.986 71.6473 148.066 72.0366C149.568 72.2266 153.916 71.4112 153.545 69.1384C153.066 66.2074 149.362 66.926 147.445 67.565" stroke="#CECCEB" stroke-width="3" stroke-linecap="round"/>
<path d="M132.788 88.6809C134.191 89.0048 135.325 90.165 136.735 90.5579C138.675 91.0985 141.418 91.2381 143.304 90.4199C145.603 89.423 147.842 85.8482 148.438 83.4641" stroke="#CECCEB" stroke-width="3" stroke-linecap="round"/>
</g>
<rect x="48.1146" y="71.4896" width="108.948" height="73.775" rx="5.5" transform="rotate(-18.1063 48.1146 71.4896)" stroke="#D1D1D6" stroke-opacity="0.24"/>
<rect x="111.884" y="273" width="9.35365" height="9.35365" transform="rotate(43.176 111.884 273)" fill="#F37021"/>
<circle cx="138.484" cy="217" r="6" fill="#F5F3F5"/>
<circle cx="206.484" cy="205" r="6" fill="#F5F3F5"/>
<defs>
<clipPath id="clip0_259_495">
<rect x="85.0641" y="38.8524" width="119.107" height="230" rx="19.1667" transform="rotate(-9.08969 85.0641 38.8524)" fill="white"/>
</clipPath>
<clipPath id="clip1_259_495">
<rect x="47.484" y="71.1698" width="109.948" height="74.775" rx="6" transform="rotate(-18.1063 47.484 71.1698)" fill="white"/>
</clipPath>
</defs>
</svg>
