<svg width="29" height="28" viewBox="0 0 29 28" fill="none" xmlns="http://www.w3.org/2000/svg">
<path d="M15.8911 1.45837H13.109C11.2723 1.45836 9.81577 1.45835 8.67535 1.59251C7.50851 1.72978 6.53968 2.01958 5.76205 2.7C4.96761 3.39513 4.61319 4.28672 4.44827 5.36003C4.29161 6.3796 4.29163 7.67274 4.29167 9.26165V18.6667H24.7083V9.26168C24.7083 7.67276 24.7085 6.37961 24.5518 5.36003C24.3868 4.28672 24.0324 3.39513 23.238 2.7C22.4603 2.01958 21.4915 1.72978 20.3247 1.59251C19.1843 1.45835 17.7277 1.45836 15.8911 1.45837Z" fill="#F37021"/>
<path fill-rule="evenodd" clip-rule="evenodd" d="M18.3949 18.6666H19.9389C20.0265 18.744 20.104 18.8359 20.1672 18.9415L23.6672 24.7748C23.9988 25.3274 23.8196 26.0439 23.267 26.3755C22.7146 26.7069 21.9979 26.5279 21.6665 25.9753L18.1665 20.142C17.8721 19.6514 17.9803 19.0316 18.3949 18.6666ZM13.7286 18.6666H15.2717C15.5141 18.8804 15.6669 19.1933 15.6669 19.5417V24.2084C15.6669 24.8528 15.1445 25.3751 14.5002 25.3751C13.8559 25.3751 13.3336 24.8528 13.3336 24.2084V19.5417C13.3336 19.1933 13.4863 18.8804 13.7286 18.6666ZM9.06148 18.6666H10.6054C11.02 19.0316 11.1282 19.6514 10.8339 20.142L7.33391 25.9753C7.00242 26.5279 6.28578 26.7069 5.73327 26.3755C5.18076 26.0439 5.00159 25.3274 5.3331 24.7748L8.8331 18.9415C8.89644 18.8359 8.97385 18.744 9.06148 18.6666Z" fill="#2D2966"/>
<path d="M4 18.6666C3.35567 18.6666 2.83333 19.1889 2.83333 19.8333C2.83333 20.4776 3.35567 21 4 21H25C25.6444 21 26.1667 20.4776 26.1667 19.8333C26.1667 19.1889 25.6444 18.6666 25 18.6666H4Z" fill="#2D2966"/>
<path fill-rule="evenodd" clip-rule="evenodd" d="M14.131 6.80998C13.7959 6.80178 13.4281 6.83045 13.106 6.8766C12.6276 6.94517 12.1843 6.61296 12.1157 6.1346C12.0471 5.65623 12.3794 5.21286 12.8577 5.14431C13.2533 5.08761 13.7208 5.04943 14.1738 5.06051C14.6048 5.07106 15.118 5.12737 15.545 5.32286C15.7663 5.42422 16.0173 5.58685 16.2029 5.8515C16.4013 6.1344 16.4783 6.46795 16.4405 6.80721C16.374 7.40495 15.9609 7.9636 15.4467 8.4794C14.2625 9.66763 12.7949 11.5928 12.1586 12.9407C12.0588 13.1519 11.9882 13.3312 11.9423 13.4772C12.1127 13.4331 12.3406 13.356 12.6363 13.2289C13.762 12.7449 14.7568 12.4491 15.597 12.3195C16.4167 12.1929 17.1739 12.2113 17.767 12.4494C18.0735 12.5724 18.3684 12.7676 18.5813 13.0635C18.8009 13.3685 18.8921 13.7236 18.8723 14.0811C18.8354 14.7481 18.4241 15.3662 17.9072 15.8846C17.5661 16.2269 17.0121 16.2277 16.6699 15.8866C16.3276 15.5455 16.3266 14.9914 16.6678 14.6493C16.9477 14.3684 17.0583 14.1717 17.1005 14.0678C16.9178 13.9999 16.5249 13.947 15.8639 14.049C15.2049 14.1507 14.3545 14.395 13.3275 14.8366C12.7537 15.0834 12.234 15.2432 11.7825 15.2734C11.3306 15.3036 10.7668 15.2071 10.4043 14.7169C10.0776 14.2751 10.1002 13.7488 10.1633 13.3922C10.2318 13.0052 10.3875 12.593 10.5761 12.1935C11.3236 10.61 12.9314 8.52407 14.2073 7.24398C14.3662 7.08457 14.4795 6.9524 14.5583 6.84608C14.446 6.82787 14.3036 6.81421 14.131 6.80998Z" fill="#2D2966"/>
</svg>
