<svg width="28" height="28" viewBox="0 0 28 28" fill="none" xmlns="http://www.w3.org/2000/svg">
<path d="M4.66666 9.33334C4.66666 6.03351 4.66666 4.3836 5.83823 3.35847C7.0098 2.33334 8.89541 2.33334 12.6666 2.33334H15.3334C19.1045 2.33334 20.9902 2.33334 22.1618 3.35847C23.3333 4.3836 23.3333 6.03351 23.3333 9.33334V19.8333H4.66666V9.33334Z" stroke="#302B27" stroke-width="1.5" stroke-linejoin="round"/>
<path d="M3.5 19.8333H24.5" stroke="#302B27" stroke-width="1.5" stroke-linecap="round"/>
<path d="M12.4818 6.49352C13.917 6.28782 16.2953 6.37011 14.327 8.34476C11.8667 10.8131 8.17643 16.367 12.4818 14.5158C16.7873 12.6646 18.6327 13.8987 16.7875 15.75" stroke="#302B27" stroke-width="1.5" stroke-linecap="round" stroke-linejoin="round"/>
<path d="M14 19.8333V24.5" stroke="#302B27" stroke-width="1.5" stroke-linecap="round"/>
<path d="M5.83334 25.6667L9.33334 19.8333" stroke="#302B27" stroke-width="1.5" stroke-linecap="round"/>
<path d="M22.1667 25.6667L18.6667 19.8333" stroke="#302B27" stroke-width="1.5" stroke-linecap="round"/>
</svg>
