<svg width="28" height="28" viewBox="0 0 28 28" fill="none" xmlns="http://www.w3.org/2000/svg">
<path d="M2.75409 17.7086C2.31587 15.5115 2.09676 14.413 2.71933 13.6686C2.76084 13.619 2.80474 13.571 2.85089 13.5248C3.54302 12.8333 4.76788 12.8333 7.2176 12.8333H20.7824C23.2322 12.8333 24.457 12.8333 25.1491 13.5248C25.1952 13.571 25.2392 13.619 25.2807 13.6686C25.9033 14.413 25.6842 15.5115 25.246 17.7086C24.6159 20.8676 24.3007 22.4471 23.1127 23.4175C23.0316 23.4836 22.9481 23.5472 22.8621 23.608C21.6024 24.5 19.8413 24.5 16.3189 24.5H11.6811C8.15878 24.5 6.39763 24.5 5.13786 23.608C5.05194 23.5472 4.96838 23.4836 4.88734 23.4175C3.69922 22.4471 3.38419 20.8676 2.75409 17.7086Z" stroke="#302B27" stroke-width="1.75"/>
<path d="M4.66666 12.8333V6.41667C4.66666 4.80584 5.97249 3.5 7.58332 3.5H10.4179C11.1981 3.5 11.9266 3.8899 12.3593 4.53903L14 7M14 7H9.91666M14 7H20.4167C22.0275 7 23.3333 8.30584 23.3333 9.91667V12.8333" stroke="#302B27" stroke-width="1.75" stroke-linecap="round" stroke-linejoin="round"/>
</svg>
