<svg width="28" height="28" viewBox="0 0 28 28" fill="none" xmlns="http://www.w3.org/2000/svg">
<path d="M20.841 11.9583C22.016 11.9583 22.9795 11.9583 23.7322 12.0514C24.5099 12.1476 25.404 12.5597 25.9519 13.1073C26.462 13.7172 26.5722 14.4349 26.535 15.187C26.5001 15.8945 26.3251 16.7715 26.1172 17.8136L26.0925 17.9375C25.7873 19.4679 25.5419 20.6983 25.218 21.6624C24.881 22.6656 24.1335 23.6967 23.3677 24.3221C22.5672 24.8891 21.645 25.139 20.5324 25.2584C19.4476 25.375 18.0879 25.375 16.3703 25.375H11.6298C9.91214 25.375 8.55238 25.375 7.46756 25.2584C6.355 25.139 5.43288 24.8891 4.63221 24.3221C3.86649 23.6967 3.119 22.6656 2.78199 21.6624C2.45811 20.6983 2.21274 19.4679 1.9075 17.9375L1.89598 17.8797L1.88277 17.8135C1.67489 16.7715 1.49992 15.8945 1.46496 15.187C1.4278 14.4349 1.53802 13.7172 2.0481 13.1073C2.59601 12.5597 3.49013 12.1476 4.26773 12.0514C5.02054 11.9583 5.98396 11.9583 7.15899 11.9583H20.841Z" fill="#F37021"/>
<path d="M24.2085 9.82915V12.1453C24.0476 12.1024 23.8876 12.0706 23.7323 12.0514C22.9795 11.9583 22.0161 11.9583 20.8411 11.9583H7.15908C5.98406 11.9583 5.02062 11.9583 4.2678 12.0514C4.11254 12.0706 3.95264 12.1024 3.79178 12.1453V6.50415C3.79178 4.36175 5.56917 2.62498 7.76169 2.62498H10.5175C11.6553 2.62498 12.7177 3.1806 13.3488 4.10561L14.6071 5.94998H20.2385C22.431 5.94998 24.2085 7.68674 24.2085 9.82915Z" fill="#2D2966"/>
</svg>
