<svg width="90" height="90" viewBox="0 0 90 90" fill="none" xmlns="http://www.w3.org/2000/svg">
<path fill-rule="evenodd" clip-rule="evenodd" d="M72.8311 34.6177H20.7998C19.681 34.6177 18.6079 35.0621 17.8167 35.8533C17.0256 36.6445 16.5811 37.7175 16.5811 38.8364V47.2739H72.8311V34.6177Z" fill="#2D2966"/>
<path fill-rule="evenodd" clip-rule="evenodd" d="M16.5811 39.8011H72.8311V42.421H16.5811V39.8011Z" fill="#221F4D"/>
<path fill-rule="evenodd" clip-rule="evenodd" d="M72.8311 33.3225C72.8311 32.2036 72.3866 31.1306 71.5954 30.3394C70.8043 29.5482 69.7312 29.1038 68.6123 29.1038H50.8402C49.9576 29.1038 49.0974 29.3807 48.3804 29.8953C47.6635 30.4099 47.126 31.1364 46.8436 31.9725L45 37.4302H72.8311V33.3225Z" fill="#2D2966"/>
<path fill-rule="evenodd" clip-rule="evenodd" d="M76.3298 48.1416C76.4546 47.3392 76.4043 46.5193 76.1823 45.7383C75.9603 44.9572 75.572 44.2334 75.0439 43.6166C74.5157 42.9998 73.8604 42.5045 73.1229 42.1649C72.3853 41.8252 71.583 41.6492 70.7709 41.6489H19.2291C18.4169 41.6487 17.6143 41.8244 16.8765 42.1639C16.1387 42.5034 15.4832 42.9987 14.955 43.6156C14.4268 44.2325 14.0384 44.9565 13.8166 45.7378C13.5949 46.5191 13.5449 47.3391 13.6702 48.1416L18.9436 81.8916C19.1508 83.2171 19.8249 84.4249 20.8442 85.2972C21.8634 86.1695 23.1609 86.6489 24.5025 86.6489H65.4975C66.8391 86.6489 68.1366 86.1695 69.1558 85.2972C70.1751 84.4249 70.8492 83.2171 71.0564 81.8916L76.3298 48.1416Z" fill="#F37021"/>
<path fill-rule="evenodd" clip-rule="evenodd" d="M13.6702 48.1416L14.3916 52.7541C14.137 51.1299 14.6953 49.4761 15.7641 48.2274C16.2922 47.6104 16.9476 47.115 17.6853 46.7754C18.423 46.4358 19.2255 46.26 20.0377 46.26H69.9623C70.7745 46.26 71.577 46.4358 72.3147 46.7754C73.0524 47.115 73.7078 47.6104 74.2359 48.2274C75.3047 49.4761 75.863 51.1299 75.6084 52.7541L76.3298 48.1416C76.4546 47.3392 76.4043 46.5193 76.1823 45.7383C75.9603 44.9572 75.572 44.2334 75.0439 43.6166C74.5157 42.9998 73.8604 42.5045 73.1229 42.1649C72.3853 41.8252 71.583 41.6492 70.7709 41.6489H19.2291C18.4169 41.6487 17.6143 41.8244 16.8765 42.1639C16.1387 42.5034 15.4832 42.9987 14.955 43.6156C14.4268 44.2325 14.0384 44.9565 13.8166 45.7378C13.5949 46.5191 13.5449 47.3391 13.6702 48.1416Z" fill="#F37021"/>
<path fill-rule="evenodd" clip-rule="evenodd" d="M41.7867 75.1837C41.7867 74.4378 41.4904 73.7224 40.963 73.195C40.4355 72.6675 39.7201 72.3712 38.9742 72.3712H27.7242C26.9783 72.3712 26.2629 72.6675 25.7355 73.195C25.208 73.7224 24.9117 74.4378 24.9117 75.1837V77.9962C24.9117 78.7421 25.208 79.4575 25.7355 79.985C26.2629 80.5124 26.9783 80.8087 27.7242 80.8087H38.9742C39.7201 80.8087 40.4355 80.5124 40.963 79.985C41.4904 79.4575 41.7867 78.7421 41.7867 77.9962V75.1837Z" fill="#2D2966"/>
<path fill-rule="evenodd" clip-rule="evenodd" d="M33.127 36.3179C33.066 35.9299 33.036 35.5377 33.037 35.145C33.0385 34.7721 32.8918 34.4138 32.6291 34.149C32.3665 33.8842 32.0094 33.7347 31.6364 33.7332C31.2634 33.7317 30.9052 33.8784 30.6404 34.1411C30.3756 34.4037 30.226 34.7608 30.2245 35.1338C30.2221 35.6768 30.264 36.219 30.3497 36.7552C30.3741 36.9413 30.4355 37.1207 30.5304 37.2827C30.6252 37.4447 30.7515 37.5861 30.9018 37.6985C31.0522 37.8109 31.2235 37.8921 31.4057 37.9373C31.5879 37.9824 31.7773 37.9906 31.9627 37.9614C32.1482 37.9322 32.3259 37.8662 32.4854 37.7672C32.6449 37.6683 32.783 37.5384 32.8915 37.3852C33 37.232 33.0768 37.0586 33.1172 36.8753C33.1577 36.692 33.161 36.5025 33.127 36.3179Z" fill="#484296"/>
<path fill-rule="evenodd" clip-rule="evenodd" d="M34.6036 30.9277C34.8792 30.6042 35.1886 30.3005 35.5317 30.0164C35.8191 29.7787 36.0002 29.4365 36.0353 29.0652C36.0704 28.6938 35.9565 28.3238 35.7188 28.0364C35.481 27.7491 35.1388 27.5679 34.7675 27.5328C34.3962 27.4978 34.0261 27.6116 33.7388 27.8494C33.2778 28.2299 32.8505 28.6496 32.4619 29.1038C32.22 29.3878 32.1009 29.7562 32.1307 30.1281C32.1605 30.4999 32.3368 30.8447 32.6208 31.0866C32.9048 31.3285 33.2733 31.4476 33.6451 31.4178C34.017 31.388 34.3617 31.2117 34.6036 30.9277Z" fill="#2D2966"/>
<path fill-rule="evenodd" clip-rule="evenodd" d="M39.9037 27.9871C40.4719 27.8592 41.0709 27.7635 41.6995 27.7003C42.0682 27.6602 42.4061 27.4761 42.6397 27.188C42.8733 26.9 42.9837 26.5313 42.9468 26.1623C42.9099 25.7933 42.7287 25.4538 42.4427 25.2177C42.1567 24.9817 41.789 24.8681 41.4197 24.9018C40.6744 24.9764 39.9628 25.0917 39.2878 25.2435C39.1044 25.2807 38.9302 25.3541 38.7755 25.4594C38.6208 25.5648 38.4887 25.6999 38.387 25.857C38.2852 26.014 38.2158 26.1898 38.1828 26.374C38.1498 26.5583 38.1539 26.7472 38.1949 26.9298C38.2359 27.1124 38.313 27.285 38.4215 27.4375C38.5301 27.5899 38.668 27.7192 38.8271 27.8176C38.9863 27.9161 39.1635 27.9818 39.3483 28.0109C39.5332 28.04 39.722 28.0319 39.9037 27.9871Z" fill="#2D2966"/>
<path fill-rule="evenodd" clip-rule="evenodd" d="M47.1023 27.6947C47.9602 27.7172 48.7744 27.7102 49.5506 27.6779C49.9192 27.6567 50.2648 27.4914 50.5126 27.2177C50.7603 26.944 50.8905 26.5838 50.875 26.2149C50.8595 25.846 50.6996 25.498 50.4297 25.246C50.1598 24.994 49.8016 24.8583 49.4325 24.8682C48.7167 24.8977 47.9644 24.9033 47.1741 24.8836C46.8057 24.8811 46.451 25.0233 46.1863 25.2796C45.9216 25.5358 45.7681 25.8857 45.7587 26.254C45.7493 26.6223 45.8848 26.9796 46.1361 27.249C46.3873 27.5184 46.7343 27.6785 47.1023 27.6947Z" fill="#2D2966"/>
<path fill-rule="evenodd" clip-rule="evenodd" d="M55.3612 26.7961C56.2683 26.5332 57.0867 26.2196 57.8208 25.868C58.141 25.6971 58.3828 25.4091 58.4957 25.0641C58.6087 24.7191 58.584 24.3439 58.4268 24.0167C58.2697 23.6895 57.9922 23.4357 57.6524 23.3082C57.3125 23.1807 56.9365 23.1894 56.603 23.3325C55.9983 23.6222 55.3247 23.8782 54.5766 24.0961C54.2265 24.2069 53.9336 24.4502 53.7605 24.7741C53.5875 25.098 53.548 25.4767 53.6505 25.8293C53.7529 26.1819 53.9893 26.4805 54.309 26.6611C54.6286 26.8418 55.0063 26.8902 55.3612 26.7961Z" fill="#2D2966"/>
<path fill-rule="evenodd" clip-rule="evenodd" d="M62.0466 22.4142C62.6865 21.5052 63.1458 20.4816 63.3994 19.3992C63.4648 19.0436 63.3909 18.6764 63.1929 18.3738C62.9949 18.0712 62.6881 17.8564 62.336 17.7739C61.9839 17.6914 61.6135 17.7476 61.3018 17.9309C60.99 18.1141 60.7607 18.4103 60.6614 18.758C60.4969 19.4583 60.1988 20.1502 59.7431 20.7999C59.5474 21.1057 59.4774 21.4753 59.5478 21.8315C59.6182 22.1878 59.8235 22.503 60.1208 22.7114C60.4182 22.9198 60.7846 23.0052 61.1434 22.9499C61.5023 22.8945 61.8259 22.7026 62.0466 22.4142Z" fill="#2D2966"/>
<path fill-rule="evenodd" clip-rule="evenodd" d="M62.8805 13.7573C62.2575 12.3047 61.2816 11.0812 60.1228 10.2825C59.8158 10.0737 59.4387 9.99479 59.0737 10.063C58.7087 10.1312 58.3855 10.341 58.1746 10.6465C57.9637 10.9521 57.8822 11.3287 57.9479 11.6941C58.0136 12.0596 58.2212 12.3842 58.5253 12.5972C59.2777 13.1161 59.8922 13.9247 60.2958 14.8669C60.4429 15.2096 60.7202 15.4799 61.0666 15.6182C61.413 15.7565 61.8001 15.7516 62.1429 15.6045C62.4856 15.4573 62.7559 15.1801 62.8942 14.8337C63.0326 14.4873 63.0276 14.1001 62.8805 13.7573Z" fill="#2D2966"/>
<path fill-rule="evenodd" clip-rule="evenodd" d="M44.8467 9.60606C46.3683 0.989965 59.5547 1.54684 51.878 9.60606H44.8467Z" fill="#F37021"/>
<path fill-rule="evenodd" clip-rule="evenodd" d="M44.8467 11.7886C46.3683 20.4033 59.5547 19.8478 51.878 11.7886H44.8467Z" fill="#F37021"/>
<path fill-rule="evenodd" clip-rule="evenodd" d="M44.7202 12.1177H54.1364C54.5094 12.1177 54.8671 11.9695 55.1308 11.7058C55.3945 11.4421 55.5427 11.0844 55.5427 10.7114C55.5427 10.3385 55.3945 9.98078 55.1308 9.71706C54.8671 9.45333 54.5094 9.30518 54.1364 9.30518H44.7202C44.3581 9.32137 44.0162 9.47661 43.7657 9.73856C43.5152 10.0005 43.3754 10.349 43.3754 10.7114C43.3754 11.0739 43.5152 11.4223 43.7657 11.6843C44.0162 11.9462 44.3581 12.1015 44.7202 12.1177Z" fill="#2D2966"/>
</svg>
